<mxfile host="www.draw.io" modified="2019-11-18T09:42:15.501Z" agent="Mozilla/5.0 (Macintosh; Intel Mac OS X 10_15_1) AppleWebKit/537.36 (KHTML, like Gecko) Chrome/78.0.3904.97 Safari/537.36" etag="Gb7ySq3MZUPNu1uFc6Ni" version="12.2.6" type="github" pages="1">
  <diagram name="Page-1" id="13e1069c-82ec-6db2-03f1-153e76fe0fe0">
    <mxGraphModel dx="989" dy="567" grid="0" gridSize="10" guides="1" tooltips="1" connect="1" arrows="1" fold="1" page="1" pageScale="1" pageWidth="1700" pageHeight="1100" background="#ffffff" math="0" shadow="0">
      <root>
        <mxCell id="0"/>
        <mxCell id="1" parent="0"/>
        <mxCell id="7baba1c4bc27f4b0-2" value="iouui" style="shape=umlLifeline;perimeter=lifelinePerimeter;whiteSpace=wrap;html=1;container=1;collapsible=0;recursiveResize=0;outlineConnect=0;rounded=1;shadow=0;comic=0;labelBackgroundColor=none;strokeWidth=1;fontFamily=Verdana;fontSize=12;align=center;fillColor=#dae8fc;strokeColor=#6c8ebf;" parent="1" vertex="1">
          <mxGeometry x="430" y="80" width="100" height="520" as="geometry"/>
        </mxCell>
        <mxCell id="7baba1c4bc27f4b0-19" value="" style="html=1;points=[];perimeter=orthogonalPerimeter;rounded=0;shadow=0;comic=0;labelBackgroundColor=none;strokeWidth=1;fontFamily=Verdana;fontSize=12;align=center;" parent="7baba1c4bc27f4b0-2" vertex="1">
          <mxGeometry x="50" y="371" width="10" height="129" as="geometry"/>
        </mxCell>
        <mxCell id="gdQqW5UKWcF35wgt8SVr-10" value="5.调用iouui中的getIouIndex接口，返回债务/债权总金额" style="html=1;verticalAlign=bottom;endArrow=block;" parent="7baba1c4bc27f4b0-2" edge="1">
          <mxGeometry width="80" relative="1" as="geometry">
            <mxPoint x="-280.5" y="375" as="sourcePoint"/>
            <mxPoint x="49" y="375" as="targetPoint"/>
          </mxGeometry>
        </mxCell>
        <mxCell id="7baba1c4bc27f4b0-4" value="openapi" style="shape=umlLifeline;perimeter=lifelinePerimeter;whiteSpace=wrap;html=1;container=1;collapsible=0;recursiveResize=0;outlineConnect=0;rounded=1;shadow=0;comic=0;labelBackgroundColor=none;strokeWidth=1;fontFamily=Verdana;fontSize=12;align=center;fillColor=#dae8fc;strokeColor=#6c8ebf;" parent="1" vertex="1">
          <mxGeometry x="590" y="80" width="110" height="520" as="geometry"/>
        </mxCell>
        <mxCell id="7baba1c4bc27f4b0-10" value="" style="html=1;points=[];perimeter=orthogonalPerimeter;rounded=0;shadow=0;comic=0;labelBackgroundColor=none;strokeWidth=1;fontFamily=Verdana;fontSize=12;align=center;" parent="7baba1c4bc27f4b0-4" vertex="1">
          <mxGeometry x="56" y="115" width="10" height="30" as="geometry"/>
        </mxCell>
        <mxCell id="7baba1c4bc27f4b0-28" value="" style="html=1;points=[];perimeter=orthogonalPerimeter;rounded=0;shadow=0;comic=0;labelBackgroundColor=none;strokeWidth=1;fontFamily=Verdana;fontSize=12;align=center;" parent="7baba1c4bc27f4b0-4" vertex="1">
          <mxGeometry x="50" y="394" width="10" height="90" as="geometry"/>
        </mxCell>
        <mxCell id="9OmuGr6ANbS1k94bwXg4-8" value="openapi校验openId和openToken" style="rounded=0;whiteSpace=wrap;html=1;gradientColor=#ffd966;fillColor=#fff2cc;strokeColor=#d6b656;" parent="7baba1c4bc27f4b0-4" vertex="1">
          <mxGeometry y="293" width="110" height="40" as="geometry"/>
        </mxCell>
        <mxCell id="7baba1c4bc27f4b0-5" value="server" style="shape=umlLifeline;perimeter=lifelinePerimeter;whiteSpace=wrap;html=1;container=1;collapsible=0;recursiveResize=0;outlineConnect=0;rounded=1;shadow=0;comic=0;labelBackgroundColor=none;strokeWidth=1;fontFamily=Verdana;fontSize=12;align=center;fillColor=#dae8fc;strokeColor=#6c8ebf;" parent="1" vertex="1">
          <mxGeometry x="750" y="80" width="90" height="520" as="geometry"/>
        </mxCell>
        <mxCell id="7baba1c4bc27f4b0-8" value="client" style="shape=umlLifeline;perimeter=lifelinePerimeter;whiteSpace=wrap;html=1;container=1;collapsible=0;recursiveResize=0;outlineConnect=0;rounded=1;shadow=0;comic=0;labelBackgroundColor=none;strokeWidth=1;fontFamily=Verdana;fontSize=12;align=center;fillColor=#dae8fc;strokeColor=#6c8ebf;" parent="1" vertex="1">
          <mxGeometry x="100" y="80" width="100" height="520" as="geometry"/>
        </mxCell>
        <mxCell id="7baba1c4bc27f4b0-21" value="2.授权欠条服务，返回opencode" style="html=1;verticalAlign=bottom;endArrow=open;dashed=1;endSize=8;labelBackgroundColor=none;fontFamily=Verdana;fontSize=12;edgeStyle=elbowEdgeStyle;elbow=vertical;" parent="1" edge="1">
          <mxGeometry relative="1" as="geometry">
            <mxPoint x="150" y="225" as="targetPoint"/>
            <Array as="points">
              <mxPoint x="460" y="225"/>
              <mxPoint x="155" y="215"/>
              <mxPoint x="665" y="235"/>
              <mxPoint x="695" y="235"/>
            </Array>
            <mxPoint x="644.5" y="225" as="sourcePoint"/>
          </mxGeometry>
        </mxCell>
        <mxCell id="7baba1c4bc27f4b0-23" value="3.携带opencode,调用欠条passport&lt;br&gt;的getAccessToken接口" style="html=1;verticalAlign=bottom;endArrow=block;labelBackgroundColor=none;fontFamily=Verdana;fontSize=12;" parent="1" edge="1">
          <mxGeometry relative="1" as="geometry">
            <mxPoint x="149.5" y="283" as="sourcePoint"/>
            <mxPoint x="329.5" y="283" as="targetPoint"/>
            <Array as="points">
              <mxPoint x="170" y="283"/>
            </Array>
          </mxGeometry>
        </mxCell>
        <mxCell id="gdQqW5UKWcF35wgt8SVr-1" value="&lt;br&gt;1.第三方应用，使用借贷宝用户信息，调用openapi进行授权" style="html=1;verticalAlign=bottom;endArrow=block;labelBackgroundColor=none;fontFamily=Verdana;fontSize=12;edgeStyle=elbowEdgeStyle;elbow=vertical;" parent="1" edge="1">
          <mxGeometry relative="1" as="geometry">
            <mxPoint x="156" y="194" as="sourcePoint"/>
            <mxPoint x="644.5" y="194.42857142857144" as="targetPoint"/>
            <Array as="points"/>
          </mxGeometry>
        </mxCell>
        <mxCell id="gdQqW5UKWcF35wgt8SVr-6" value="4.换取memberID(欠条)&lt;br&gt;和accessToken（欠条）&lt;br&gt;完后欠条服务的登录" style="html=1;verticalAlign=bottom;endArrow=open;dashed=1;endSize=8;labelBackgroundColor=none;fontFamily=Verdana;fontSize=12;" parent="1" edge="1">
          <mxGeometry relative="1" as="geometry">
            <mxPoint x="149.5" y="333" as="targetPoint"/>
            <mxPoint x="330" y="333" as="sourcePoint"/>
          </mxGeometry>
        </mxCell>
        <mxCell id="7baba1c4bc27f4b0-3" value="passport(iou)" style="shape=umlLifeline;perimeter=lifelinePerimeter;whiteSpace=wrap;html=1;container=1;collapsible=0;recursiveResize=0;outlineConnect=0;rounded=1;shadow=0;comic=0;labelBackgroundColor=none;strokeWidth=1;fontFamily=Verdana;fontSize=12;align=center;fillColor=#dae8fc;strokeColor=#6c8ebf;" parent="1" vertex="1">
          <mxGeometry x="280" y="80" width="100" height="520" as="geometry"/>
        </mxCell>
        <mxCell id="gdQqW5UKWcF35wgt8SVr-12" value="" style="html=1;points=[];perimeter=orthogonalPerimeter;" parent="7baba1c4bc27f4b0-3" vertex="1">
          <mxGeometry x="50" y="203" width="10" height="50" as="geometry"/>
        </mxCell>
        <mxCell id="gdQqW5UKWcF35wgt8SVr-11" value="request" style="html=1;verticalAlign=bottom;endArrow=block;" parent="1" source="7baba1c4bc27f4b0-19" edge="1">
          <mxGeometry width="80" relative="1" as="geometry">
            <mxPoint x="494" y="481" as="sourcePoint"/>
            <mxPoint x="639.5" y="479" as="targetPoint"/>
            <Array as="points">
              <mxPoint x="580" y="479"/>
            </Array>
          </mxGeometry>
        </mxCell>
        <mxCell id="gdQqW5UKWcF35wgt8SVr-16" value="response" style="html=1;verticalAlign=bottom;endArrow=open;dashed=1;endSize=8;exitX=-0.399;exitY=1.005;exitDx=0;exitDy=0;exitPerimeter=0;" parent="1" source="7baba1c4bc27f4b0-28" target="7baba1c4bc27f4b0-19" edge="1">
          <mxGeometry relative="1" as="geometry">
            <mxPoint x="570" y="519" as="sourcePoint"/>
            <mxPoint x="500" y="529" as="targetPoint"/>
          </mxGeometry>
        </mxCell>
        <mxCell id="gdQqW5UKWcF35wgt8SVr-17" value="" style="html=1;points=[];perimeter=orthogonalPerimeter;" parent="1" vertex="1">
          <mxGeometry x="797" y="487" width="10" height="63" as="geometry"/>
        </mxCell>
        <mxCell id="gdQqW5UKWcF35wgt8SVr-21" value="返回债务/债权总金额" style="html=1;verticalAlign=bottom;endArrow=open;dashed=1;endSize=8;exitX=-0.399;exitY=1.005;exitDx=0;exitDy=0;exitPerimeter=0;" parent="1" edge="1">
          <mxGeometry relative="1" as="geometry">
            <mxPoint x="796.01" y="546.3499999999999" as="sourcePoint"/>
            <mxPoint x="649.9999999999998" y="546.3499999999999" as="targetPoint"/>
          </mxGeometry>
        </mxCell>
        <mxCell id="gdQqW5UKWcF35wgt8SVr-22" value="6.返回债务/债权总金额" style="html=1;verticalAlign=bottom;endArrow=open;dashed=1;endSize=8;" parent="1" edge="1">
          <mxGeometry relative="1" as="geometry">
            <mxPoint x="479.5" y="579" as="sourcePoint"/>
            <mxPoint x="149.99999999999977" y="579.45" as="targetPoint"/>
            <Array as="points">
              <mxPoint x="190" y="579"/>
            </Array>
          </mxGeometry>
        </mxCell>
        <mxCell id="gdQqW5UKWcF35wgt8SVr-23" value="&amp;nbsp;调用ploaniou中的&lt;br&gt;&amp;nbsp;getCreditorIOUSum方法&lt;br&gt;getDebtorIOUSum方法" style="html=1;verticalAlign=bottom;endArrow=block;" parent="1" edge="1">
          <mxGeometry width="80" relative="1" as="geometry">
            <mxPoint x="650.4999999999998" y="487.5" as="sourcePoint"/>
            <mxPoint x="800" y="487.5" as="targetPoint"/>
            <Array as="points">
              <mxPoint x="740.5" y="487.5"/>
            </Array>
          </mxGeometry>
        </mxCell>
        <mxCell id="9OmuGr6ANbS1k94bwXg4-11" value="登录欠条服务" style="rounded=0;whiteSpace=wrap;html=1;fillColor=#d5e8d4;strokeColor=#82b366;" parent="1" vertex="1">
          <mxGeometry x="70" y="218" width="30" height="80" as="geometry"/>
        </mxCell>
        <mxCell id="9OmuGr6ANbS1k94bwXg4-14" value="返回&lt;br&gt;金额" style="rounded=0;whiteSpace=wrap;html=1;fillColor=#d5e8d4;strokeColor=#82b366;" parent="1" vertex="1">
          <mxGeometry x="70" y="425" width="30" height="80" as="geometry"/>
        </mxCell>
        <mxCell id="9OmuGr6ANbS1k94bwXg4-24" value="把memberID转换为openId和openToken" style="rounded=0;whiteSpace=wrap;html=1;gradientColor=#ffd966;fillColor=#fff2cc;strokeColor=#d6b656;" parent="1" vertex="1">
          <mxGeometry x="265" y="372" width="130" height="40" as="geometry"/>
        </mxCell>
        <mxCell id="kx64ISdg5gA9TyvqFG6k-1" value="&lt;span style=&quot;font-family: &amp;#34;verdana&amp;#34;&quot;&gt;通过手机号密码，微信，微博登录请求借贷宝passport,&lt;/span&gt;&lt;br style=&quot;font-family: &amp;#34;verdana&amp;#34;&quot;&gt;&lt;span style=&quot;font-family: &amp;#34;verdana&amp;#34;&quot;&gt;得到借贷宝memberID和借贷宝accessToken&lt;/span&gt;" style="rounded=0;whiteSpace=wrap;html=1;gradientColor=#ffd966;fillColor=#fff2cc;strokeColor=#d6b656;" parent="1" vertex="1">
          <mxGeometry x="245" y="132" width="320" height="40" as="geometry"/>
        </mxCell>
        <mxCell id="RaOKE88ktWt_zm394A-6-3" value="frame" style="shape=umlFrame;whiteSpace=wrap;html=1;" vertex="1" parent="1">
          <mxGeometry x="69" y="127" width="633" height="222" as="geometry"/>
        </mxCell>
        <mxCell id="RaOKE88ktWt_zm394A-6-5" value="frame" style="shape=umlFrame;whiteSpace=wrap;html=1;" vertex="1" parent="1">
          <mxGeometry x="69" y="362" width="773" height="236" as="geometry"/>
        </mxCell>
      </root>
    </mxGraphModel>
  </diagram>
</mxfile>
